<svg width="256" height="256" xmlns="http://www.w3.org/2000/svg">

 <g>
  <title>background</title>
  <rect fill="none" id="canvas_background" height="402" width="582" y="-1" x="-1"/>
 </g>
 <g>
  <title>Layer 1</title>
  <path fill="#ffffff" id="svg_1" d="m164.525,222.138l89.6,-89.6c2.5,-2.5 2.5,-6.551 0,-9.051l-89.6,-89.6c-2.5,-2.5 -6.551,-2.5 -9.051,0s-2.5,6.743 0,9.243l78.676,78.87l-227.75,0c-3.535,0 -6.4,2.466 -6.4,6s2.865,6 6.4,6l227.75,0l-78.676,78.881c-1.25,1.25 -1.875,2.992 -1.875,4.629s0.625,3.326 1.875,4.576c2.501,2.5 6.551,2.552 9.051,0.052z"/>
 </g>
</svg>