<?xml version="1.0" standalone="no"?>
<!DOCTYPE svg PUBLIC "-//W3C//DTD SVG 20010904//EN"
 "http://www.w3.org/TR/2001/REC-SVG-20010904/DTD/svg10.dtd">
<svg version="1.0" xmlns="http://www.w3.org/2000/svg"
 width="128.000000pt" height="128.000000pt" viewBox="0 0 128.000000 128.000000"
 preserveAspectRatio="xMidYMid meet">
<metadata>
Created by potrace 1.14, written by Peter Selinger 2001-2017
</metadata>
<g transform="translate(0.000000,128.000000) scale(0.100000,-0.100000)"
fill="#000000" stroke="none">
<path d="M60 1123 c-8 -3 -23 -12 -32 -21 -17 -14 -18 -44 -18 -364 0 -335 1
-349 20 -368 18 -18 33 -20 190 -20 94 0 170 -2 170 -5 0 -3 -20 -46 -45 -95
-25 -50 -43 -90 -40 -90 3 0 80 43 171 95 l166 95 294 0 c281 0 295 1 314 20
19 19 20 33 20 368 0 342 0 349 -21 368 -20 18 -46 19 -598 21 -317 1 -583 -1
-591 -4z"/>
</g>
</svg>
